<?xml version="1.0" standalone="no"?>
<!DOCTYPE svg PUBLIC "-//W3C//DTD SVG 20010904//EN"
 "http://www.w3.org/TR/2001/REC-SVG-20010904/DTD/svg10.dtd">
<svg version="1.0" xmlns="http://www.w3.org/2000/svg"
 width="2000.000000pt" height="231.000000pt" viewBox="0 0 2000.000000 231.000000"
 preserveAspectRatio="xMidYMid meet">

<g transform="translate(0.000000,231.000000) scale(0.100000,-0.100000)"
fill="#000000" stroke="none">
<path d="M14265 2199 c-99 -11 -140 -38 -164 -108 -8 -24 -11 -259 -11 -820 0
-836 4 -910 49 -1032 57 -151 194 -212 476 -213 208 0 230 22 230 234 0 147
-8 177 -57 213 -18 13 -48 22 -85 24 -82 6 -100 10 -109 30 -5 10 -11 364 -14
788 -5 749 -6 771 -25 805 -38 66 -146 96 -290 79z"/>
<path d="M6397 2186 c-57 -16 -92 -46 -109 -95 -10 -28 -13 -236 -13 -966 0
-511 4 -947 8 -968 20 -95 100 -133 263 -125 107 5 166 32 199 91 l21 37 25
-26 c78 -83 254 -123 410 -94 202 38 428 247 510 470 101 279 33 575 -183 791
-116 116 -234 179 -373 198 -126 18 -268 -18 -347 -88 l-37 -32 -3 343 c-4
366 -7 387 -56 431 -48 44 -211 61 -315 33z m729 -1200 c84 -39 134 -122 134
-222 0 -31 -7 -70 -15 -88 -92 -194 -339 -208 -440 -25 -52 94 -37 196 42 289
60 72 181 92 279 46z"/>
<path d="M15200 2194 c-8 -3 -34 -12 -58 -21 -33 -11 -48 -24 -65 -56 -19 -37
-22 -57 -22 -162 0 -109 2 -124 25 -165 36 -64 88 -81 236 -77 132 4 167 19
202 87 19 38 22 60 22 155 -1 193 -40 236 -225 241 -55 2 -107 1 -115 -2z"/>
<path d="M974 2080 c-78 -9 -124 -35 -149 -85 -19 -39 -20 -63 -23 -923 -2
-620 1 -895 9 -924 23 -86 92 -121 239 -121 132 0 194 28 229 103 14 30 17
104 21 546 l5 512 395 -525 c217 -289 412 -545 433 -569 21 -24 53 -47 70 -53
91 -27 260 -18 321 17 17 10 41 37 54 62 l22 44 0 886 c-1 932 -1 931 -45 980
-28 31 -108 52 -198 52 -133 0 -201 -27 -231 -92 -7 -17 -13 -190 -16 -560
l-5 -535 -195 260 c-108 143 -290 388 -405 545 -116 156 -226 301 -246 321
-51 51 -158 73 -285 59z"/>
<path d="M11430 2010 c-104 -11 -134 -30 -165 -103 -12 -28 -15 -78 -15 -225
l0 -189 -68 5 c-135 9 -181 -44 -190 -218 -10 -204 46 -280 194 -265 l62 7 5
-293 c3 -227 8 -306 20 -348 71 -242 246 -352 562 -354 142 0 198 19 229 78
18 34 21 58 21 155 0 145 -10 171 -78 205 -39 19 -66 25 -118 25 -144 0 -149
11 -149 309 l0 219 153 -1 c179 -2 213 8 250 77 19 36 22 57 22 161 0 143 -16
185 -81 219 -34 19 -57 21 -191 21 l-151 0 -4 200 c-4 222 -10 248 -71 285
-28 17 -54 23 -147 34 -14 1 -54 -1 -90 -4z"/>
<path d="M3472 1529 c-81 -14 -199 -56 -272 -96 -92 -51 -235 -197 -282 -288
-65 -124 -83 -208 -83 -380 0 -174 12 -234 75 -362 90 -183 226 -303 419 -371
72 -25 88 -27 306 -30 145 -2 252 0 290 8 183 34 280 98 298 197 15 77 -59
235 -124 269 -44 22 -85 20 -170 -9 -137 -47 -300 -61 -395 -32 -97 29 -174
97 -174 154 0 20 7 20 373 23 l374 3 48 30 c59 36 110 100 127 158 7 23 13 87
13 142 0 124 -27 215 -95 319 -81 123 -199 209 -344 248 -83 22 -302 32 -384
17z m240 -449 c52 -15 98 -70 98 -120 0 -93 -18 -100 -265 -100 -127 0 -195 4
-195 10 0 43 60 126 124 173 62 44 157 59 238 37z"/>
<path d="M16325 1529 c-194 -13 -318 -61 -403 -154 -76 -83 -96 -142 -96 -290
-1 -124 10 -177 56 -268 63 -126 236 -224 481 -273 157 -32 195 -52 182 -95
-10 -31 -65 -49 -148 -49 -85 0 -142 17 -265 79 -93 47 -164 61 -211 41 -52
-21 -150 -191 -151 -260 0 -65 29 -94 152 -154 164 -80 254 -100 453 -100 175
0 274 17 390 69 112 49 189 139 221 257 17 64 20 224 5 291 -44 193 -187 291
-506 347 -136 24 -197 49 -214 86 -28 62 19 89 159 88 86 0 104 -3 195 -39
126 -49 155 -49 205 0 51 49 99 142 106 202 5 40 2 53 -17 77 -31 40 -142 89
-269 119 -120 29 -197 35 -325 26z"/>
<path d="M8680 1497 c-68 -28 -135 -70 -176 -109 l-31 -29 -6 29 c-9 44 -53
90 -100 104 -23 6 -87 12 -143 12 -126 0 -187 -25 -219 -89 -19 -39 -20 -60
-20 -655 0 -597 1 -616 20 -649 39 -66 162 -100 296 -81 90 13 128 34 154 85
19 37 20 66 25 422 6 431 1 405 89 468 57 40 160 47 239 16 98 -39 189 -17
236 57 62 98 85 254 50 328 -46 96 -278 147 -414 91z"/>
<path d="M4647 1496 c-59 -16 -91 -45 -106 -95 -17 -59 -15 -726 4 -813 52
-248 219 -448 438 -526 61 -22 89 -26 187 -26 110 -1 118 0 176 31 34 17 86
55 117 83 l55 50 7 -38 c17 -105 79 -136 253 -130 153 5 201 37 222 147 13 70
13 1096 0 1176 -12 71 -33 103 -86 130 -33 17 -59 20 -159 20 -102 0 -125 -3
-154 -20 -83 -49 -91 -92 -91 -486 l0 -297 -27 -52 c-51 -96 -149 -139 -272
-119 -70 11 -123 47 -158 106 l-28 48 -5 350 c-5 330 -6 352 -26 385 -34 58
-91 83 -203 87 -60 2 -114 -2 -144 -11z"/>
<path d="M9430 1495 c-57 -19 -72 -31 -96 -75 -17 -32 -19 -63 -22 -353 -4
-357 4 -449 47 -573 40 -118 83 -186 176 -280 62 -63 98 -90 157 -118 157 -75
323 -86 440 -28 35 17 88 54 118 81 30 28 55 51 56 51 1 0 4 -18 7 -40 7 -51
28 -85 70 -107 26 -15 56 -18 157 -18 153 0 192 15 228 85 l22 44 0 606 0 606
-22 44 c-30 60 -76 81 -188 88 -110 6 -189 -10 -222 -46 -53 -56 -53 -54 -58
-427 -5 -382 -5 -377 -67 -439 -93 -95 -285 -92 -367 4 -15 19 -33 45 -39 59
-8 17 -13 148 -17 371 -5 325 -6 347 -26 385 -33 64 -84 86 -207 91 -73 3
-115 0 -147 -11z"/>
<path d="M12955 1503 c-158 -16 -280 -79 -406 -210 -154 -159 -219 -313 -219
-519 0 -225 66 -382 229 -544 135 -133 247 -188 401 -197 139 -9 257 27 332
101 41 40 48 43 48 20 0 -32 36 -75 80 -96 38 -19 62 -22 160 -23 139 0 183
16 215 80 19 39 20 60 20 655 0 597 -1 616 -20 649 -34 58 -64 73 -167 84
-129 13 -196 -1 -249 -54 -21 -21 -39 -48 -39 -58 0 -32 -15 -32 -46 0 -30 32
-114 79 -174 97 -41 12 -122 20 -165 15z m237 -522 c64 -39 117 -135 118 -219
0 -79 -52 -164 -127 -209 -59 -34 -157 -36 -219 -5 -124 63 -176 196 -123 312
23 51 71 105 112 127 68 35 173 32 239 -6z"/>
<path d="M15230 1500 c-36 -3 -78 -13 -95 -21 -41 -20 -73 -71 -80 -132 -3
-29 -5 -311 -3 -627 3 -557 4 -576 23 -610 12 -19 34 -42 50 -52 48 -28 156
-40 242 -28 86 12 122 30 149 74 18 29 19 64 22 641 2 414 0 622 -8 647 -25
85 -134 125 -300 108z"/>
<path d="M17368 1497 c-61 -18 -94 -40 -115 -80 -17 -30 -18 -78 -18 -652 0
-606 0 -621 20 -655 12 -19 35 -43 52 -53 48 -28 155 -40 237 -27 100 15 135
35 160 89 20 43 21 67 26 406 5 334 6 363 25 400 11 22 36 50 55 63 30 20 45
23 97 20 55 -3 67 -8 96 -36 57 -56 60 -73 66 -462 7 -412 8 -416 94 -459 41
-20 64 -24 145 -24 105 -1 163 13 201 47 48 43 51 65 52 378 0 161 4 328 8
370 15 142 63 192 178 186 73 -4 103 -26 137 -98 20 -42 21 -65 26 -405 6
-414 5 -410 93 -454 40 -19 64 -24 140 -24 156 -2 221 30 247 121 13 47 13
710 0 811 -24 182 -72 300 -161 395 -121 130 -304 185 -460 140 -83 -24 -179
-86 -248 -160 -34 -36 -63 -64 -64 -63 -84 132 -185 204 -323 230 -148 28
-257 -8 -361 -119 -62 -65 -63 -66 -63 -37 0 17 -9 49 -20 73 -15 34 -29 47
-66 64 -59 26 -189 33 -256 15z"/>
</g>
</svg>
